<?xml version="1.0" encoding="UTF-8"?>
<!DOCTYPE svg PUBLIC "-//W3C//DTD SVG 1.1//EN" "http://www.w3.org/Graphics/SVG/1.1/DTD/svg11.dtd">
<!-- Creator: CorelDRAW 2020 (64-Bit) -->
<svg xmlns="http://www.w3.org/2000/svg" xml:space="preserve" width="1.86588in" height="0.254717in" version="1.1" style="shape-rendering:geometricPrecision; text-rendering:geometricPrecision; image-rendering:optimizeQuality; fill-rule:evenodd; clip-rule:evenodd"
viewBox="0 0 531.81 72.6"
 xmlns:xlink="http://www.w3.org/1999/xlink"
 xmlns:xodm="http://www.corel.com/coreldraw/odm/2003">
 <defs>
  <style type="text/css">
   <![CDATA[
    .fil0 {fill:#8AA8BD;fill-rule:nonzero;fill-opacity:0.501961}
    .fil2 {fill:white;fill-rule:nonzero;fill-opacity:0.501961}
    .fil1 {fill:url(#id0);fill-rule:nonzero}
   ]]>
  </style>
  <linearGradient id="id0" gradientUnits="userSpaceOnUse" x1="248.94" y1="103.51" x2="280.63" y2="-32.03">
   <stop offset="0" style="stop-opacity:1; stop-color:#8AA8BD"/>
   <stop offset="0.329412" style="stop-opacity:1; stop-color:#BDC8D1"/>
   <stop offset="0.619608" style="stop-opacity:1; stop-color:#B4C5D1"/>
   <stop offset="1" style="stop-opacity:1; stop-color:#D5DBE0"/>
  </linearGradient>
 </defs>
 <g id="Layer_x0020_1">
  <metadata id="CorelCorpID_0Corel-Layer"/>
  <g id="_1185017843632">
   <path class="fil0" d="M54.1 69.08c-4.85,2.34 -11.19,3.52 -19.02,3.52 -10.2,0 -18.23,-2.99 -24.07,-8.99 -5.86,-6 -8.77,-14 -8.77,-23.99 0,-10.64 3.28,-19.27 9.85,-25.89 6.57,-6.62 15.11,-9.93 25.59,-9.93 6.49,0 11.97,0.82 16.42,2.47l0 14.43c-4.45,-2.66 -9.52,-3.99 -15.22,-3.99 -6.24,0 -11.29,1.96 -15.12,5.89 -3.83,3.93 -5.75,9.25 -5.75,15.96 0,6.43 1.81,11.56 5.43,15.38 3.61,3.82 8.49,5.73 14.62,5.73 5.84,0 11.19,-1.43 16.04,-4.28l0 13.7zm56.45 0c-4.85,2.34 -11.19,3.52 -19.02,3.52 -10.2,0 -18.23,-2.99 -24.07,-8.99 -5.86,-6 -8.77,-14 -8.77,-23.99 0,-10.64 3.28,-19.27 9.85,-25.89 6.57,-6.62 15.11,-9.93 25.59,-9.93 6.49,0 11.97,0.82 16.42,2.47l0 14.43c-4.45,-2.66 -9.52,-3.99 -15.22,-3.99 -6.24,0 -11.29,1.96 -15.12,5.89 -3.83,3.93 -5.75,9.25 -5.75,15.96 0,6.43 1.81,11.56 5.43,15.38 3.61,3.82 8.49,5.73 14.62,5.73 5.84,0 11.19,-1.43 16.04,-4.28l0 13.7zm87.41 2.36l-14.81 0 0 -39.81c0,-4.29 0.19,-9.04 0.55,-14.24l-0.36 0c-0.78,4.08 -1.47,7.01 -2.09,8.82l-15.58 45.22 -12.26 0 -15.87 -44.76c-0.43,-1.2 -1.12,-4.31 -2.09,-9.28l-0.41 0c0.4,6.56 0.6,12.3 0.6,17.26l0 36.78 -13.51 0 0 -66.52 21.95 0 13.6 39.43c1.08,3.15 1.87,6.32 2.36,9.52l0.29 0c0.82,-3.69 1.71,-6.89 2.64,-9.61l13.59 -39.33 21.39 0 0 66.52z"/>
   <path class="fil0" d="M286 17.12l-18.99 0 0 54.33 -15.03 0 0 -54.33 -18.88 0 0 -12.19 52.89 0 0 12.19zm53.13 54.33l-14.62 0 0 -27c0,-6.97 -2.53,-10.43 -7.62,-10.43 -2.6,0 -4.7,0.97 -6.3,2.91 -1.61,1.95 -2.42,4.43 -2.42,7.43l0 27.09 -14.65 0 0 -70.32 14.65 0 0 29.86 0.19 0c3.59,-5.46 8.46,-8.2 14.61,-8.2 10.77,0 16.15,6.49 16.15,19.48l0 29.18zm54.26 -19.57l-30.99 0c0.49,6.89 4.85,10.34 13.03,10.34 5.23,0 9.82,-1.23 13.78,-3.71l0 10.58c-4.39,2.34 -10.09,3.52 -17.12,3.52 -7.66,0 -13.62,-2.12 -17.86,-6.38 -4.23,-4.24 -6.35,-10.18 -6.35,-17.78 0,-7.89 2.28,-14.14 6.87,-18.75 4.58,-4.61 10.2,-6.9 16.88,-6.9 6.92,0 12.29,2.06 16.07,6.16 3.78,4.12 5.68,9.71 5.68,16.75l0 6.18zm-13.59 -9.01c0,-6.79 -2.76,-10.2 -8.27,-10.2 -2.34,0 -4.39,0.97 -6.1,2.91 -1.73,1.95 -2.76,4.39 -3.14,7.28l17.5 0zm97.73 28.58l-14.62 0 0 -27.09c0,-6.9 -2.53,-10.34 -7.6,-10.34 -2.41,0 -4.37,1.03 -5.89,3.1 -1.52,2.07 -2.28,4.66 -2.28,7.74l0 26.59 -14.65 0 0 -27.38c0,-6.7 -2.5,-10.06 -7.47,-10.06 -2.5,0 -4.51,0.98 -6,2.96 -1.5,1.98 -2.26,4.67 -2.26,8.08l0 26.4 -14.65 0 0 -47.5 14.65 0 0 7.43 0.19 0c1.52,-2.53 3.64,-4.61 6.38,-6.19 2.74,-1.6 5.73,-2.39 8.98,-2.39 6.71,0 11.31,2.95 13.78,8.85 3.63,-5.91 8.93,-8.85 15.96,-8.85 10.32,0 15.49,6.37 15.49,19.11l0 29.55zm54.28 -19.57l-30.99 0c0.49,6.89 4.85,10.34 13.03,10.34 5.23,0 9.82,-1.23 13.78,-3.71l0 10.58c-4.39,2.34 -10.09,3.52 -17.12,3.52 -7.66,0 -13.62,-2.12 -17.86,-6.38 -4.23,-4.24 -6.35,-10.18 -6.35,-17.78 0,-7.89 2.28,-14.14 6.87,-18.75 4.58,-4.61 10.2,-6.9 16.88,-6.9 6.92,0 12.29,2.06 16.07,6.16 3.78,4.12 5.68,9.71 5.68,16.75l0 6.18zm-13.59 -9.01c0,-6.79 -2.76,-10.2 -8.27,-10.2 -2.34,0 -4.39,0.97 -6.1,2.91 -1.73,1.95 -2.76,4.39 -3.14,7.28l17.5 0z"/>
  </g>
  <path class="fil1" d="M51.86 67.96c-4.85,2.34 -11.19,3.52 -19.02,3.52 -10.2,0 -18.23,-2.99 -24.07,-8.99 -5.86,-6 -8.77,-14 -8.77,-23.99 0,-10.64 3.28,-19.27 9.85,-25.89 6.57,-6.62 15.11,-9.93 25.59,-9.93 6.49,0 11.97,0.82 16.42,2.47l0 14.43c-4.45,-2.66 -9.52,-3.99 -15.22,-3.99 -6.24,0 -11.29,1.96 -15.12,5.89 -3.83,3.93 -5.75,9.25 -5.75,15.96 0,6.43 1.81,11.56 5.43,15.38 3.61,3.82 8.49,5.73 14.62,5.73 5.84,0 11.19,-1.43 16.04,-4.28l0 13.7zm56.45 0c-4.85,2.34 -11.19,3.52 -19.02,3.52 -10.2,0 -18.23,-2.99 -24.07,-8.99 -5.86,-6 -8.77,-14 -8.77,-23.99 0,-10.64 3.28,-19.27 9.85,-25.89 6.57,-6.62 15.11,-9.93 25.59,-9.93 6.49,0 11.97,0.82 16.42,2.47l0 14.43c-4.45,-2.66 -9.52,-3.99 -15.22,-3.99 -6.24,0 -11.29,1.96 -15.12,5.89 -3.83,3.93 -5.75,9.25 -5.75,15.96 0,6.43 1.81,11.56 5.43,15.38 3.61,3.82 8.49,5.73 14.62,5.73 5.84,0 11.19,-1.43 16.04,-4.28l0 13.7zm87.41 2.36l-14.81 0 0 -39.81c0,-4.29 0.19,-9.04 0.55,-14.24l-0.36 0c-0.78,4.08 -1.47,7.01 -2.09,8.82l-15.58 45.22 -12.26 0 -15.87 -44.76c-0.43,-1.2 -1.12,-4.31 -2.09,-9.28l-0.41 0c0.4,6.56 0.6,12.3 0.6,17.26l0 36.78 -13.51 0 0 -66.52 21.95 0 13.6 39.43c1.08,3.15 1.87,6.32 2.36,9.52l0.29 0c0.82,-3.69 1.71,-6.89 2.64,-9.61l13.59 -39.33 21.39 0 0 66.52zm88.04 -54.33l-18.99 0 0 54.33 -15.03 0 0 -54.33 -18.88 0 0 -12.19 52.89 0 0 12.19zm53.13 54.33l-14.62 0 0 -27c0,-6.97 -2.53,-10.43 -7.62,-10.43 -2.6,0 -4.7,0.97 -6.3,2.91 -1.61,1.95 -2.42,4.43 -2.42,7.43l0 27.09 -14.65 0 0 -70.32 14.65 0 0 29.86 0.19 0c3.59,-5.46 8.46,-8.2 14.61,-8.2 10.77,0 16.15,6.49 16.15,19.48l0 29.18zm54.26 -19.57l-30.99 0c0.49,6.89 4.85,10.34 13.03,10.34 5.23,0 9.82,-1.23 13.78,-3.71l0 10.58c-4.39,2.34 -10.09,3.52 -17.12,3.52 -7.66,0 -13.62,-2.12 -17.86,-6.38 -4.23,-4.24 -6.35,-10.18 -6.35,-17.78 0,-7.89 2.28,-14.14 6.87,-18.75 4.58,-4.61 10.2,-6.9 16.88,-6.9 6.92,0 12.29,2.06 16.07,6.16 3.78,4.12 5.68,9.71 5.68,16.75l0 6.18zm-13.59 -9.01c0,-6.79 -2.76,-10.2 -8.27,-10.2 -2.34,0 -4.39,0.97 -6.1,2.91 -1.73,1.95 -2.76,4.39 -3.14,7.28l17.5 0zm97.73 28.58l-14.62 0 0 -27.09c0,-6.9 -2.53,-10.34 -7.6,-10.34 -2.41,0 -4.37,1.03 -5.89,3.1 -1.52,2.07 -2.28,4.66 -2.28,7.74l0 26.59 -14.65 0 0 -27.38c0,-6.7 -2.5,-10.06 -7.47,-10.06 -2.5,0 -4.51,0.98 -6,2.96 -1.5,1.98 -2.26,4.67 -2.26,8.08l0 26.4 -14.65 0 0 -47.5 14.65 0 0 7.43 0.19 0c1.52,-2.53 3.64,-4.61 6.38,-6.19 2.74,-1.6 5.73,-2.39 8.98,-2.39 6.71,0 11.31,2.95 13.78,8.85 3.63,-5.91 8.93,-8.85 15.96,-8.85 10.32,0 15.49,6.37 15.49,19.11l0 29.55zm54.28 -19.57l-30.99 0c0.49,6.89 4.85,10.34 13.03,10.34 5.23,0 9.82,-1.23 13.78,-3.71l0 10.58c-4.39,2.34 -10.09,3.52 -17.12,3.52 -7.66,0 -13.62,-2.12 -17.86,-6.38 -4.23,-4.24 -6.35,-10.18 -6.35,-17.78 0,-7.89 2.28,-14.14 6.87,-18.75 4.58,-4.61 10.2,-6.9 16.88,-6.9 6.92,0 12.29,2.06 16.07,6.16 3.78,4.12 5.68,9.71 5.68,16.75l0 6.18zm-13.59 -9.01c0,-6.79 -2.76,-10.2 -8.27,-10.2 -2.34,0 -4.39,0.97 -6.1,2.91 -1.73,1.95 -2.76,4.39 -3.14,7.28l17.5 0z"/>
  <path class="fil2" d="M51.86 67.96c-4.85,2.34 -11.19,3.52 -19.02,3.52 -10.2,0 -18.23,-2.99 -24.07,-8.99 -5.86,-6 -8.77,-14 -8.77,-23.99 0,-10.64 3.28,-19.27 9.85,-25.89 6.57,-6.62 15.11,-9.93 25.59,-9.93 6.49,0 11.97,0.82 16.42,2.47l0 14.43c-4.45,-2.66 -9.52,-3.99 -15.22,-3.99 -6.24,0 -11.29,1.96 -15.12,5.89 -3.83,3.93 -5.75,9.25 -5.75,15.96 0,6.43 1.81,11.56 5.43,15.38 3.61,3.82 8.49,5.73 14.62,5.73 5.84,0 11.19,-1.43 16.04,-4.28l0 13.7zm56.45 0c-4.85,2.34 -11.19,3.52 -19.02,3.52 -10.2,0 -18.23,-2.99 -24.07,-8.99 -5.86,-6 -8.77,-14 -8.77,-23.99 0,-10.64 3.28,-19.27 9.85,-25.89 6.57,-6.62 15.11,-9.93 25.59,-9.93 6.49,0 11.97,0.82 16.42,2.47l0 14.43c-4.45,-2.66 -9.52,-3.99 -15.22,-3.99 -6.24,0 -11.29,1.96 -15.12,5.89 -3.83,3.93 -5.75,9.25 -5.75,15.96 0,6.43 1.81,11.56 5.43,15.38 3.61,3.82 8.49,5.73 14.62,5.73 5.84,0 11.19,-1.43 16.04,-4.28l0 13.7zm87.41 2.36l-14.81 0 0 -39.81c0,-4.29 0.19,-9.04 0.55,-14.24l-0.36 0c-0.78,4.08 -1.47,7.01 -2.09,8.82l-15.58 45.22 -12.26 0 -15.87 -44.76c-0.43,-1.2 -1.12,-4.31 -2.09,-9.28l-0.41 0c0.4,6.56 0.6,12.3 0.6,17.26l0 36.78 -13.51 0 0 -66.52 21.95 0 13.6 39.43c1.08,3.15 1.87,6.32 2.36,9.52l0.29 0c0.82,-3.69 1.71,-6.89 2.64,-9.61l13.59 -39.33 21.39 0 0 66.52zm88.04 -54.33l-18.99 0 0 54.33 -15.03 0 0 -54.33 -18.88 0 0 -12.19 52.89 0 0 12.19zm53.13 54.33l-14.62 0 0 -27c0,-6.97 -2.53,-10.43 -7.62,-10.43 -2.6,0 -4.7,0.97 -6.3,2.91 -1.61,1.95 -2.42,4.43 -2.42,7.43l0 27.09 -14.65 0 0 -70.32 14.65 0 0 29.86 0.19 0c3.59,-5.46 8.46,-8.2 14.61,-8.2 10.77,0 16.15,6.49 16.15,19.48l0 29.18zm54.26 -19.57l-30.99 0c0.49,6.89 4.85,10.34 13.03,10.34 5.23,0 9.82,-1.23 13.78,-3.71l0 10.58c-4.39,2.34 -10.09,3.52 -17.12,3.52 -7.66,0 -13.62,-2.12 -17.86,-6.38 -4.23,-4.24 -6.35,-10.18 -6.35,-17.78 0,-7.89 2.28,-14.14 6.87,-18.75 4.58,-4.61 10.2,-6.9 16.88,-6.9 6.92,0 12.29,2.06 16.07,6.16 3.78,4.12 5.68,9.71 5.68,16.75l0 6.18zm-13.59 -9.01c0,-6.79 -2.76,-10.2 -8.27,-10.2 -2.34,0 -4.39,0.97 -6.1,2.91 -1.73,1.95 -2.76,4.39 -3.14,7.28l17.5 0zm97.73 28.58l-14.62 0 0 -27.09c0,-6.9 -2.53,-10.34 -7.6,-10.34 -2.41,0 -4.37,1.03 -5.89,3.1 -1.52,2.07 -2.28,4.66 -2.28,7.74l0 26.59 -14.65 0 0 -27.38c0,-6.7 -2.5,-10.06 -7.47,-10.06 -2.5,0 -4.51,0.98 -6,2.96 -1.5,1.98 -2.26,4.67 -2.26,8.08l0 26.4 -14.65 0 0 -47.5 14.65 0 0 7.43 0.19 0c1.52,-2.53 3.64,-4.61 6.38,-6.19 2.74,-1.6 5.73,-2.39 8.98,-2.39 6.71,0 11.31,2.95 13.78,8.85 3.63,-5.91 8.93,-8.85 15.96,-8.85 10.32,0 15.49,6.37 15.49,19.11l0 29.55zm54.28 -19.57l-30.99 0c0.49,6.89 4.85,10.34 13.03,10.34 5.23,0 9.82,-1.23 13.78,-3.71l0 10.58c-4.39,2.34 -10.09,3.52 -17.12,3.52 -7.66,0 -13.62,-2.12 -17.86,-6.38 -4.23,-4.24 -6.35,-10.18 -6.35,-17.78 0,-7.89 2.28,-14.14 6.87,-18.75 4.58,-4.61 10.2,-6.9 16.88,-6.9 6.92,0 12.29,2.06 16.07,6.16 3.78,4.12 5.68,9.71 5.68,16.75l0 6.18zm-13.59 -9.01c0,-6.79 -2.76,-10.2 -8.27,-10.2 -2.34,0 -4.39,0.97 -6.1,2.91 -1.73,1.95 -2.76,4.39 -3.14,7.28l17.5 0z"/>
 </g>
</svg>
